<?xml version="1.0" encoding="UTF-8"?><svg id="Layer_1" xmlns="http://www.w3.org/2000/svg" viewBox="0 0 1200 156"><path d="m733.5,27.65c7.95-4.05,16.58-6.11,25.66-6.11,9.7,0,18.91,2.29,27.47,6.87,2.08.96,3.8,1.42,5.26,1.42,2.41,0,4.43-.99,5.82-2.86,1.29-1.73,1.95-3.8,1.95-6.17,0-4.43-1.8-7.85-5.37-10.17-4.93-3.13-10.58-5.58-16.81-7.28-6.21-1.7-12.7-2.55-19.3-2.55-12.13,0-23.87,2.82-34.88,8.39-11.07,5.6-20.2,14.32-27.15,25.92-6.94,11.59-10.45,25.95-10.45,42.68s3.52,30.92,10.45,42.57c6.94,11.67,16.03,20.49,27.03,26.23,10.95,5.72,22.66,8.61,34.8,8.61,13.76,0,25.98-3.45,36.24-10.21,1.73-1.01,3.09-2.42,4.04-4.19.93-1.73,1.4-3.55,1.4-5.4,0-2.53-.73-4.73-2.18-6.53-1.53-1.9-3.59-2.91-5.98-2.91-1.64,0-3.21.44-4.6,1.27-8.71,4.66-18.05,7.02-27.75,7.02-9.2,0-17.89-2.12-25.83-6.3-7.89-4.15-14.34-10.55-19.16-19.02-4.84-8.49-7.29-18.97-7.29-31.13s2.48-23,7.38-31.42c4.88-8.4,11.36-14.69,19.24-18.71Z" style="fill:#f0f6ff;"/><path d="m1056.26,31.59c5.37-3.18,8.97-9.69-5.71-21.77-.08-.06-.16-.12-.24-.19-7.61-5.82-17.1-8.61-27.98-8.61-8.08,0-15.48,1.62-22,4.83-6.59,3.23-11.84,7.94-15.6,13.99-3.77,6.05-5.68,13.05-5.68,20.8,0,8.47,1.99,15.66,5.92,21.38,3.85,5.61,8.57,10.19,14.03,13.61,5.31,3.33,12.38,6.97,20.99,10.82,6.83,3.12,12.35,5.86,16.38,8.15,3.87,2.2,7.13,4.98,9.72,8.25,2.5,3.17,3.71,6.9,3.71,11.42,0,6.44-2.23,11.47-6.81,15.36-4.62,3.92-10.99,5.92-18.94,5.92-6.73,0-11.9-.69-17.47-3.86-1.61-.92-3.74-2.65-5.93-5.04-6.77-7.35-8.77-11.87-15.93-10.02-5.48,1.42-8.32,7.67-5.7,14.85,3.47,9.51,14.9,15.96,14.9,15.96,0,0,0,0,0,0,8.46,5.58,18.75,7.67,30.12,7.67,9.08,0,17.31-1.69,24.47-5.01,7.23-3.36,12.97-8.27,17.06-14.59,4.11-6.33,6.19-13.82,6.19-22.27s-1.96-15.62-5.83-21.28c-3.8-5.56-8.5-10.01-13.99-13.23-5.3-3.11-12.36-6.57-21-10.3-7.07-2.97-12.73-5.64-16.82-7.93-3.92-2.19-7.25-5.03-9.89-8.44-2.57-3.3-3.81-7.25-3.81-12.05,0-6.02,2.03-10.63,6.21-14.11,4.24-3.52,9.58-5.31,15.88-5.31s11,2.08,15.4,5.21c.26.19,2.68,2.31,2.68,2.31,8.12,7.6,15.65,3.48,15.65,3.48Z" style="fill:#f0f6ff;"/><path d="m1187.19,152.95c-.28,0-.53-.12-.74-.35-.2-.26-.29-.55-.29-.89v-11.96c0-.44.13-.81.39-1.12.26-.34.58-.5.96-.5h.55c.28,0,.53.1.74.31.24.18.41.41.52.7l3.74,11.11,3.74-11.11c.11-.28.27-.52.48-.7.24-.21.5-.31.77-.31h.55c.39,0,.71.17.97.5.26.31.39.68.39,1.12v11.96c0,.34-.1.63-.29.89-.19.23-.44.35-.74.35-.28,0-.53-.12-.74-.35-.19-.26-.29-.55-.29-.89v-10.14l-3.58,10.41c-.11.28-.28.52-.52.7-.21.18-.46.27-.74.27s-.54-.09-.77-.27c-.21-.18-.37-.41-.48-.7l-3.58-10.41v10.14c0,.34-.1.63-.29.89-.2.23-.44.35-.74.35Zm-8.03,0c-.28,0-.52-.12-.71-.35-.19-.23-.29-.52-.29-.85v-11.31h-3.23c-.26,0-.48-.1-.67-.31-.17-.23-.26-.5-.26-.81s.09-.57.26-.77c.19-.23.42-.35.67-.35h8.51c.26,0,.47.12.64.35.19.21.29.46.29.77s-.1.58-.29.81c-.17.21-.39.31-.64.31h-3.25v11.31c0,.34-.1.62-.29.85-.19.23-.44.35-.74.35Z" style="fill:#f0f6ff;"/><path d="m97.77,3.3c-5.73,0-10.37,4.64-10.37,10.37v54.21H20.79V13.67c0-5.73-4.64-10.37-10.37-10.37S.05,7.94.05,13.67v128.79c0,5.73,4.64,10.37,10.37,10.37s10.37-4.64,10.37-10.37v-54.33h66.61v54.33c0,5.73,4.64,10.37,10.37,10.37s10.37-4.64,10.37-10.37V13.67c0-5.73-4.64-10.37-10.37-10.37Z" style="fill:#f0f6ff;"/><path d="m259.33,138.94L217.12,13.92c-1.11-3.12-2.72-5.66-4.77-7.56-2.19-2.01-4.69-3.04-7.44-3.04h-4.36c-2.5,0-4.91,1.06-7.16,3.14-2.13,1.98-3.71,4.5-4.69,7.49l-12.71,37.78,9.85,31.06c8.11-27.2,16.85-50.95,17.27-52.32l36.25,115c1.77,5.63,7.83,8.7,13.41,6.8,5.49-1.87,8.43-7.83,6.57-13.32Z" style="fill:#f0f6ff;"/><path d="m167.98,76.43l-21.1,62.51c-1.86,5.49,1.08,11.45,6.57,13.32,5.59,1.9,11.64-1.17,13.41-6.8l11.39-37.77-10.27-31.27Z" style="fill:#10a4b3;"/><path d="m948.53,138.94l-42.21-125.02c-1.11-3.12-2.72-5.66-4.77-7.56-2.19-2.01-4.69-3.04-7.44-3.04h-4.36c-2.5,0-4.91,1.06-7.16,3.14-2.13,1.98-3.71,4.5-4.69,7.49l-12.71,37.78,9.85,31.06c8.11-27.2,16.85-50.95,17.27-52.32l36.25,115c1.77,5.63,7.83,8.7,13.41,6.8,5.49-1.87,8.43-7.83,6.57-13.32Z" style="fill:#f0f6ff;"/><path d="m857.18,76.43l-21.1,62.51c-1.86,5.49,1.08,11.45,6.57,13.32,5.59,1.9,11.64-1.17,13.41-6.8l11.39-37.77-10.27-31.27Z" style="fill:#10a4b3;"/><path d="m389.71,132.71h-65.83l71.2-115.74c1.35-2.25,2.01-4.19,2.01-5.94,0-2.22-.94-4.17-2.74-5.63-1.69-1.38-3.94-2.07-6.68-2.07h-84.85c-5.56,0-10.06,4.5-10.06,10.06s4.5,10.06,10.06,10.06h65.62l-71.73,115.69c-1.35,2.09-2.04,4.11-2.04,6,0,2.37.92,4.35,2.65,5.74,1.62,1.3,3.83,1.96,6.57,1.96h85.81c5.56,0,10.06-4.5,10.06-10.06h0c0-5.56-4.5-10.06-10.06-10.06Z" style="fill:#f0f6ff;"/><path d="m548.3,13.29c0-5.59-4.53-10.13-10.13-10.13h-78.25c-5.46,0-9.88,4.42-9.88,9.88v10.37h88.14c5.59,0,10.13-4.53,10.13-10.13Z" style="fill:#f0f6ff;"/><path d="m538.72,132.58h-88.14v10.37c0,5.46,4.42,9.88,9.88,9.88h78.25c5.59,0,10.13-4.53,10.13-10.13s-4.53-10.13-10.13-10.13Z" style="fill:#f0f6ff;"/><path d="m538.72,67.87h-112.83v20.25h112.83c5.59,0,10.13-4.53,10.13-10.13h0c0-5.59-4.53-10.13-10.13-10.13Z" style="fill:#f0f6ff;"/><path d="m659.31,132.58h-50.88V13.81c0-5.81-4.71-10.52-10.52-10.52s-10.52,4.71-10.52,10.52v129.13c0,5.46,4.42,9.88,9.88,9.88h62.03c5.59,0,10.13-4.53,10.13-10.13s-4.53-10.13-10.13-10.13Z" style="fill:#f0f6ff;"/><path d="m1179.93,3.3h-78.08c-5.59,0-10.13,4.53-10.13,10.13s4.53,10.13,10.13,10.13h28.52v118.77c0,5.81,4.71,10.52,10.52,10.52s10.52-4.71,10.52-10.52V23.55h28.52c5.59,0,10.13-4.53,10.13-10.13s-4.53-10.13-10.13-10.13Z" style="fill:#f0f6ff;"/></svg>