<svg width="2599" height="1980" xmlns="http://www.w3.org/2000/svg" xmlns:xlink="http://www.w3.org/1999/xlink" overflow="hidden"><defs><clipPath id="clip0"><rect x="0" y="0" width="2599" height="1980"/></clipPath></defs><g clip-path="url(#clip0)"><path d="M945 950.5C945 742.565 1113.56 574 1321.5 574 1529.44 574 1698 742.565 1698 950.5 1698 1158.44 1529.44 1327 1321.5 1327 1113.56 1327 945 1158.44 945 950.5Z" fill="#548DD4" fill-rule="evenodd"/><rect x="502" y="756" width="1873" height="392" fill="#FFFFFF"/><path d="M608.5 951.5 2014.44 951.729" stroke="#FF0000" stroke-width="320.833" stroke-linejoin="round" stroke-miterlimit="10" fill="none" fill-rule="evenodd"/><path d="M743.5 948.5C743.5 629.832 1002.06 371.5 1321 371.5 1639.94 371.5 1898.5 629.832 1898.5 948.5 1898.5 1267.17 1639.94 1525.5 1321 1525.5 1002.06 1525.5 743.5 1267.17 743.5 948.5Z" stroke="#FF0000" stroke-width="320.833" stroke-linejoin="round" stroke-miterlimit="10" fill="none" fill-rule="evenodd"/><text fill="#FFFFFF" font-family="Verdana,Verdana_MSFontService,sans-serif" font-weight="700" font-size="275" transform="matrix(1 0 0 1 641.437 1049)">U M L e t</text></g></svg>