<svg width="160" height="44" viewBox="0 0 160 44" fill="none" xmlns="http://www.w3.org/2000/svg">
<g clip-path="url(#clip0)">
<path d="M78.1304 9.76245L57.9158 40.4291L23.9542 30.2069L78.1304 9.76245Z" fill="#D4E5F1"/>
<path d="M30.3143 43.954L23.9542 30.2069L57.9158 40.4291L30.3143 43.954Z" fill="#CADBE9"/>
<path d="M0.107117 7.49425L23.9539 30.2069L17.4864 34.6513L0.107117 7.49425Z" fill="#ABC1D7"/>
<path d="M30.3145 43.954L23.9544 30.2069L17.4869 34.6513L30.3145 43.954Z" fill="#95B0C4"/>
<path d="M20.0923 26.5747L34.6363 0L32.3835 27.0345L23.9544 30.2069L20.0923 26.5747Z" fill="#EAE735"/>
<path d="M49.8083 20.4598L34.6359 0L32.3677 27.0345L49.8083 20.4598Z" fill="#ED5248"/>
<path d="M78.1306 9.76245L47.5253 17.364L49.8548 20.4444L78.1306 9.76245Z" fill="#DEEAF5"/>
<path d="M26.8351 14.2682L0.107117 7.49425L20.0918 26.5747L26.8351 14.2682Z" fill="#E0E9F5"/>
<path opacity="0.1" d="M23.372 13.3946L20.0923 26.5747L26.8356 14.2682L23.372 13.3946Z" fill="black"/>
<path opacity="0.1" d="M48.8433 17.0421L49.8548 20.4444L47.5253 17.364L48.8433 17.0421Z" fill="black"/>
<path opacity="0.1" d="M34.6359 0L35.9079 25.7012L32.3677 27.0345L34.6359 0Z" fill="black"/>
<path opacity="0.1" d="M30.6052 27.6935L34.6359 0L32.3677 27.0345L30.6052 27.6935Z" fill="black"/>
<path d="M23.9234 30.3908L0 7.60154L0.199234 7.38698L23.9847 30.0383L78.0843 9.62453L78.1916 9.90039L23.9234 30.3908Z" fill="white"/>
<path d="M87.264 41.3333C88.4748 41.1801 89.5322 40.8736 90.4058 40.3831C91.6778 39.6935 92.7966 38.7739 93.7928 37.6705L91.0648 34.9732L87.264 41.3333Z" fill="url(#paint0_linear)"/>
<path d="M90.7896 27.0345L93.6402 23.954C92.7053 22.9119 91.6018 22.0843 90.3605 21.4406C89.9773 21.2414 89.5635 21.0881 89.1344 20.9502L90.621 26.8353C90.667 26.9119 90.7283 26.9732 90.7896 27.0345Z" fill="url(#paint1_linear)"/>
<path d="M108.536 29.0881L116.506 20.9195H110.927L102.605 29.8084V35.2337L105.41 32.3218L108.536 29.0881Z" fill="url(#paint2_linear)"/>
<path d="M102.605 28.1379V13.2414H97.9615V40.9809H102.605V38.3448V35.2337V29.8084V28.1379Z" fill="url(#paint3_linear)"/>
<path d="M105.41 32.3218L111.448 40.9808H116.766L108.537 29.0881L105.41 32.3218Z" fill="url(#paint4_linear)"/>
<path d="M127.709 20.613C126.069 20.613 124.659 20.7663 123.494 21.0728C122.33 21.3793 121.195 21.7778 120.077 22.2835L121.333 25.9617C122.238 25.5785 123.142 25.272 124.031 25.0575C124.92 24.8276 125.931 24.7203 127.065 24.7203C128.659 24.7203 129.885 25.0881 130.728 25.8238C131.571 26.5594 132 27.6169 132 29.0115V29.5019V32.4444C132.031 32.4598 132.046 32.4598 132.077 32.4751V33.7318C132.077 34.0077 132.046 34.2682 132 34.5134V40.9808H136.521V29.0881C136.521 26.4061 135.801 24.3218 134.36 22.8353C132.92 21.3487 130.697 20.613 127.709 20.613Z" fill="#414242"/>
<path d="M131.678 35.4483C131.418 35.9693 131.035 36.4138 130.559 36.7816C130.084 37.1494 129.517 37.4406 128.874 37.6398C128.23 37.8391 127.525 37.9464 126.759 37.9464C125.671 37.9464 124.751 37.6858 124 37.1801C123.249 36.6743 122.881 35.9387 122.881 34.9732V34.8965C122.881 33.8544 123.28 33.0575 124.092 32.5057C124.904 31.954 126.023 31.6628 127.479 31.6628C128.368 31.6628 129.211 31.7395 130.008 31.8927C130.774 32.0306 131.433 32.2145 132 32.4291V29.4866C131.218 29.2414 130.391 29.0268 129.548 28.8735C128.705 28.7203 127.663 28.6437 126.452 28.6437C125.287 28.6437 124.199 28.7816 123.203 29.0421C122.207 29.3027 121.349 29.7011 120.613 30.2375C119.893 30.7739 119.326 31.4483 118.927 32.2452C118.529 33.0575 118.314 34.0077 118.314 35.0958V35.1724C118.314 36.1839 118.513 37.0728 118.897 37.8544C119.295 38.6207 119.801 39.2797 120.46 39.7854C121.103 40.3065 121.854 40.6896 122.713 40.9655C123.571 41.226 124.49 41.364 125.441 41.364C126.958 41.364 128.245 41.0881 129.318 40.5211C130.376 39.9693 131.249 39.2797 131.939 38.4674V40.9349H131.969V34.4674C131.939 34.8352 131.831 35.1571 131.678 35.4483Z" fill="url(#paint5_linear)"/>
<path d="M158.146 22.59C156.904 21.1954 155.157 20.5057 152.874 20.5057C152.092 20.5057 151.387 20.5977 150.774 20.7969C150.161 20.9962 149.594 21.2567 149.073 21.5785C148.552 21.9004 148.107 22.2835 147.709 22.7126C147.31 23.1418 146.958 23.5862 146.636 24.0766V29.6858C146.636 28.1226 147.05 26.8965 147.878 26.023C148.705 25.1494 149.778 24.7203 151.111 24.7203C152.46 24.7203 153.517 25.1494 154.253 25.9923C154.989 26.8352 155.372 28.046 155.372 29.6092V40.9808H160V28.2146C160 25.8544 159.387 23.9847 158.146 22.59Z" fill="url(#paint6_linear)"/>
<path d="M146.636 20.9195H141.992V40.9808H146.636V31.8161V29.6858V24.0613V20.9195Z" fill="url(#paint7_linear)"/>
<path d="M81.4409 26.4215C81.9467 25.8391 82.5597 25.3793 83.2647 25.0421C83.9696 24.705 84.7513 24.5364 85.5788 24.5364C86.7436 24.5364 87.7244 24.7663 88.5214 25.2414C89.257 25.6705 89.9466 26.2069 90.6057 26.8659L89.1191 20.9808C88.1076 20.6743 86.9428 20.5211 85.6248 20.5211C84.1229 20.5211 82.7436 20.7969 81.4562 21.364C80.1689 21.9157 79.0654 22.682 78.1459 23.6475C77.211 24.613 76.4907 25.7318 75.9697 26.9885C75.4486 28.2605 75.188 29.6092 75.188 31.0498C75.188 32.4904 75.4486 33.8391 75.9697 35.0958L80.3221 28.3218C80.598 27.5862 80.9658 26.9732 81.4409 26.4215Z" fill="#414242"/>
<path d="M91.0195 34.9425C90.2838 35.6782 89.5022 36.2759 88.69 36.751C87.8624 37.2261 86.9122 37.4559 85.8241 37.4559C84.9352 37.4559 84.1229 37.2874 83.3873 36.9502C82.6516 36.613 82.0233 36.1533 81.4869 35.5709C80.9505 34.9885 80.5367 34.2989 80.2455 33.5172C79.9543 32.7356 79.8011 31.8774 79.8011 30.9732C79.8011 30.0843 79.939 29.2567 80.2455 28.4904C80.2608 28.4291 80.2915 28.3831 80.3068 28.3372L75.9543 35.1111C76.4754 36.3678 77.211 37.4713 78.1306 38.4215C79.0654 39.3716 80.1689 40.1226 81.4256 40.659C82.6976 41.2107 84.0769 41.4713 85.5635 41.4713C86.1612 41.4713 86.7129 41.4406 87.2493 41.364L91.0501 35.0038L91.0195 34.9425Z" fill="url(#paint8_linear)"/>
</g>
<defs>
<linearGradient id="paint0_linear" x1="87.2632" y1="38.1548" x2="93.7881" y2="38.1548" gradientUnits="userSpaceOnUse">
<stop stop-color="#999999"/>
<stop offset="1"/>
</linearGradient>
<linearGradient id="paint1_linear" x1="89.1188" y1="23.9997" x2="93.6368" y2="23.9997" gradientUnits="userSpaceOnUse">
<stop stop-color="#999999"/>
<stop offset="1"/>
</linearGradient>
<linearGradient id="paint2_linear" x1="99.284" y1="35.5573" x2="112.512" y2="22.3294" gradientUnits="userSpaceOnUse">
<stop stop-color="#999999"/>
<stop offset="1"/>
</linearGradient>
<linearGradient id="paint3_linear" x1="100.285" y1="4.25963" x2="100.285" y2="34.8413" gradientUnits="userSpaceOnUse">
<stop stop-color="#999999"/>
<stop offset="1"/>
</linearGradient>
<linearGradient id="paint4_linear" x1="103.321" y1="24.5745" x2="114.415" y2="41.8044" gradientUnits="userSpaceOnUse">
<stop stop-color="#999999"/>
<stop offset="1"/>
</linearGradient>
<linearGradient id="paint5_linear" x1="137.058" y1="35.0314" x2="124.107" y2="35.0314" gradientUnits="userSpaceOnUse">
<stop stop-color="#999999"/>
<stop offset="1"/>
</linearGradient>
<linearGradient id="paint6_linear" x1="141.843" y1="30.7384" x2="157.734" y2="30.7384" gradientUnits="userSpaceOnUse">
<stop stop-color="#999999"/>
<stop offset="1"/>
</linearGradient>
<linearGradient id="paint7_linear" x1="144.316" y1="14.2099" x2="144.316" y2="42.792" gradientUnits="userSpaceOnUse">
<stop stop-color="#999999"/>
<stop offset="1"/>
</linearGradient>
<linearGradient id="paint8_linear" x1="82.93" y1="26.6041" x2="84.1066" y2="43.7499" gradientUnits="userSpaceOnUse">
<stop stop-color="#999999"/>
<stop offset="1"/>
</linearGradient>
<clipPath id="clip0">
<rect width="160" height="43.954" fill="white"/>
</clipPath>
</defs>
</svg>
